<?xml version="1.0" encoding="UTF-8" standalone="no"?>
<!DOCTYPE svg PUBLIC "-//W3C//DTD SVG 1.1//EN"
 "http://www.w3.org/Graphics/SVG/1.1/DTD/svg11.dtd">
<!-- Generated by graphviz version 9.0.0 (20230911.1827)
 -->
<!-- Title: CPP Tutorial Pages: 1 -->
<svg width="1258pt" height="369pt"
 viewBox="0.00 0.00 1258.42 368.68" xmlns="http://www.w3.org/2000/svg" xmlns:xlink="http://www.w3.org/1999/xlink">
<g id="graph0" class="graph" transform="scale(1 1) rotate(0) translate(4 364.68)">
<title>CPP Tutorial</title>
<polygon fill="white" stroke="none" points="-4,4 -4,-364.68 1254.42,-364.68 1254.42,4 -4,4"/>
<g id="clust1" class="cluster">
<title>clusterLegend</title>
<polygon fill="none" stroke="black" points="8,-74.94 8,-352.68 544,-352.68 544,-74.94 8,-74.94"/>
<text text-anchor="middle" x="276" y="-335.38" font-family="Times,serif" font-size="14.00">Legend</text>
</g>
<!-- legendNode0 -->
<g id="node1" class="node">
<title>legendNode0</title>
<polygon fill="none" stroke="black" points="288.29,-284.23 291.14,-284.33 293.95,-284.47 296.72,-284.67 299.44,-284.91 302.1,-285.21 304.68,-285.54 307.18,-285.93 309.59,-286.36 311.89,-286.83 314.09,-287.34 316.17,-287.89 318.12,-288.49 319.94,-289.12 321.62,-289.78 323.17,-290.49 324.57,-291.22 325.82,-291.98 326.92,-292.77 327.87,-293.59 328.66,-294.43 329.31,-295.29 329.8,-296.17 330.15,-297.07 330.34,-297.98 330.4,-298.9 330.31,-299.83 330.08,-300.77 329.73,-301.71 329.24,-302.65 328.64,-303.59 327.92,-304.53 327.08,-305.46 326.14,-306.38 325.11,-307.29 323.98,-308.19 322.77,-309.07 321.48,-309.93 320.11,-310.77 318.68,-311.59 317.18,-312.38 315.63,-313.14 314.03,-313.87 312.39,-314.57 310.7,-315.24 308.98,-315.87 307.23,-316.46 305.46,-317.02 303.65,-317.53 301.83,-318 300,-318.43 298.14,-318.81 296.28,-319.15 294.4,-319.44 292.52,-319.69 290.63,-319.88 288.74,-320.03 286.85,-320.13 284.95,-320.18 283.05,-320.18 281.15,-320.13 279.26,-320.03 277.37,-319.88 275.48,-319.69 273.6,-319.44 271.72,-319.15 269.86,-318.81 268,-318.43 266.17,-318 264.35,-317.53 262.54,-317.02 260.77,-316.46 259.02,-315.87 257.3,-315.24 255.61,-314.57 253.97,-313.87 252.37,-313.14 250.82,-312.38 249.32,-311.59 247.89,-310.77 246.52,-309.93 245.23,-309.07 244.02,-308.19 242.89,-307.29 241.86,-306.38 240.92,-305.46 240.08,-304.53 239.36,-303.59 238.76,-302.65 238.27,-301.71 237.92,-300.77 237.69,-299.83 237.6,-298.9 237.66,-297.98 237.85,-297.07 238.2,-296.17 238.69,-295.29 239.34,-294.43 240.13,-293.59 241.08,-292.77 242.18,-291.98 243.43,-291.22 244.83,-290.49 246.38,-289.78 248.06,-289.12 249.88,-288.49 251.83,-287.89 253.91,-287.34 256.11,-286.83 258.41,-286.36 260.82,-285.93 263.32,-285.54 265.9,-285.21 268.56,-284.91 271.28,-284.67 274.05,-284.47 276.86,-284.33 279.71,-284.23 282.57,-284.18 285.43,-284.18 288.29,-284.23"/>
<text text-anchor="middle" x="284" y="-297.9" font-family="Times,serif" font-size="12.00">Executable</text>
</g>
<!-- legendNode1 -->
<g id="node2" class="node">
<title>legendNode1</title>
<polygon fill="none" stroke="black" points="126.42,-201.85 126.42,-216.76 93.96,-227.31 48.04,-227.31 15.58,-216.76 15.58,-201.85 48.04,-191.31 93.96,-191.31 126.42,-201.85"/>
<text text-anchor="middle" x="71" y="-205.03" font-family="Times,serif" font-size="12.00">Static Library</text>
</g>
<!-- legendNode0&#45;&gt;legendNode1 -->
<g id="edge1" class="edge">
<title>legendNode0&#45;&gt;legendNode1</title>
<path fill="none" stroke="black" d="M252.11,-287.58C215.57,-271.99 155.48,-246.35 114.62,-228.92"/>
<polygon fill="black" stroke="black" points="116.12,-225.75 105.55,-225.05 113.38,-232.19 116.12,-225.75"/>
</g>
<!-- legendNode2 -->
<g id="node3" class="node">
<title>legendNode2</title>
<polygon fill="none" stroke="black" points="268.07,-201.85 268.07,-216.76 232.88,-227.31 183.12,-227.31 147.93,-216.76 147.93,-201.85 183.12,-191.31 232.88,-191.31 268.07,-201.85"/>
<polygon fill="none" stroke="black" points="272.07,-198.87 272.07,-219.74 233.47,-231.31 182.53,-231.31 143.93,-219.74 143.93,-198.87 182.53,-187.31 233.47,-187.31 272.07,-198.87"/>
<text text-anchor="middle" x="208" y="-205.03" font-family="Times,serif" font-size="12.00">Shared Library</text>
</g>
<!-- legendNode0&#45;&gt;legendNode2 -->
<g id="edge2" class="edge">
<title>legendNode0&#45;&gt;legendNode2</title>
<path fill="none" stroke="black" d="M270.06,-284.51C259.77,-272.21 245.48,-255.12 233.2,-240.44"/>
<polygon fill="black" stroke="black" points="235.95,-238.27 226.85,-232.84 230.58,-242.76 235.95,-238.27"/>
</g>
<!-- legendNode3 -->
<g id="node4" class="node">
<title>legendNode3</title>
<polygon fill="none" stroke="black" points="423.65,-201.85 423.65,-216.76 386.95,-227.31 335.05,-227.31 298.35,-216.76 298.35,-201.85 335.05,-191.31 386.95,-191.31 423.65,-201.85"/>
<polygon fill="none" stroke="black" points="427.65,-198.84 427.65,-219.78 387.51,-231.31 334.49,-231.31 294.35,-219.78 294.35,-198.84 334.49,-187.31 387.51,-187.31 427.65,-198.84"/>
<polygon fill="none" stroke="black" points="431.65,-195.83 431.65,-222.79 388.08,-235.31 333.92,-235.31 290.35,-222.79 290.35,-195.83 333.92,-183.31 388.08,-183.31 431.65,-195.83"/>
<text text-anchor="middle" x="361" y="-205.03" font-family="Times,serif" font-size="12.00">Module Library</text>
</g>
<!-- legendNode0&#45;&gt;legendNode3 -->
<!-- legendNode7 -->
<g id="node8" class="node">
<title>legendNode7</title>
<polygon fill="none" stroke="black" points="535.88,-227.31 450.12,-227.31 450.12,-191.31 535.88,-191.31 535.88,-227.31"/>
<text text-anchor="middle" x="493" y="-205.03" font-family="Times,serif" font-size="12.00">Custom Target</text>
</g>
<!-- legendNode0&#45;&gt;legendNode7 -->
<!-- legendNode4 -->
<g id="node5" class="node">
<title>legendNode4</title>
<polygon fill="none" stroke="black" points="166.08,-106.5 91,-118.94 15.92,-106.5 44.6,-86.37 137.4,-86.37 166.08,-106.5"/>
<text text-anchor="middle" x="91" y="-96.66" font-family="Times,serif" font-size="12.00">Interface Library</text>
</g>
<!-- legendNode1&#45;&gt;legendNode4 -->
<g id="edge4" class="edge">
<title>legendNode1&#45;&gt;legendNode4</title>
<path fill="none" stroke="black" stroke-dasharray="5,2" d="M74.21,-191.22C77.32,-174.68 82.09,-149.33 85.75,-129.86"/>
<polygon fill="black" stroke="black" points="89.17,-130.6 87.58,-120.12 82.29,-129.3 89.17,-130.6"/>
<text text-anchor="middle" x="107" y="-150.07" font-family="Times,serif" font-size="14.00">Interface</text>
</g>
<!-- legendNode5 -->
<g id="node6" class="node">
<title>legendNode5</title>
<polygon fill="none" stroke="black" points="309.98,-100.94 278.49,-118.94 215.51,-118.94 184.02,-100.94 215.51,-82.94 278.49,-82.94 309.98,-100.94"/>
<text text-anchor="middle" x="247" y="-96.66" font-family="Times,serif" font-size="12.00">Object Library</text>
</g>
<!-- legendNode2&#45;&gt;legendNode5 -->
<g id="edge5" class="edge">
<title>legendNode2&#45;&gt;legendNode5</title>
<path fill="none" stroke="black" stroke-dasharray="1,5" d="M215.8,-187.04C221.81,-170.65 230.17,-147.84 236.73,-129.96"/>
<polygon fill="black" stroke="black" points="239.95,-131.32 240.11,-120.72 233.38,-128.91 239.95,-131.32"/>
<text text-anchor="middle" x="249.12" y="-150.07" font-family="Times,serif" font-size="14.00">Private</text>
</g>
<!-- legendNode6 -->
<g id="node7" class="node">
<title>legendNode6</title>
<polygon fill="none" stroke="black" points="472.18,-96.93 457.89,-112.16 400,-118.94 342.11,-112.16 327.82,-96.93 367.88,-84.72 432.12,-84.72 472.18,-96.93"/>
<text text-anchor="middle" x="400" y="-96.66" font-family="Times,serif" font-size="12.00">Unknown Library</text>
</g>
<!-- legendNode3&#45;&gt;legendNode6 -->
<g id="edge6" class="edge">
<title>legendNode3&#45;&gt;legendNode6</title>
<path fill="none" stroke="black" d="M370.34,-182.83C376.27,-166.65 383.95,-145.72 390,-129.21"/>
<polygon fill="black" stroke="black" points="393.22,-130.61 393.37,-120.01 386.64,-128.2 393.22,-130.61"/>
</g>
<!-- node0 -->
<g id="node9" class="node">
<title>node0</title>
<polygon fill="none" stroke="black" points="605.53,-284.23 608.53,-284.33 611.49,-284.47 614.42,-284.67 617.29,-284.91 620.09,-285.21 622.81,-285.54 625.45,-285.93 627.99,-286.36 630.42,-286.83 632.74,-287.34 634.93,-287.89 636.99,-288.49 638.91,-289.12 640.68,-289.78 642.31,-290.49 643.79,-291.22 645.11,-291.98 646.27,-292.77 647.27,-293.59 648.11,-294.43 648.79,-295.29 649.31,-296.17 649.67,-297.07 649.88,-297.98 649.94,-298.9 649.84,-299.83 649.61,-300.77 649.23,-301.71 648.72,-302.65 648.08,-303.59 647.32,-304.53 646.44,-305.46 645.45,-306.38 644.36,-307.29 643.17,-308.19 641.89,-309.07 640.53,-309.93 639.09,-310.77 637.57,-311.59 636,-312.38 634.36,-313.14 632.68,-313.87 630.94,-314.57 629.17,-315.24 627.35,-315.87 625.5,-316.46 623.63,-317.02 621.73,-317.53 619.81,-318 617.87,-318.43 615.92,-318.81 613.95,-319.15 611.97,-319.44 609.99,-319.69 608,-319.88 606,-320.03 604,-320.13 602,-320.18 600,-320.18 598,-320.13 596,-320.03 594,-319.88 592.01,-319.69 590.03,-319.44 588.05,-319.15 586.08,-318.81 584.13,-318.43 582.19,-318 580.27,-317.53 578.37,-317.02 576.5,-316.46 574.65,-315.87 572.83,-315.24 571.06,-314.57 569.32,-313.87 567.64,-313.14 566,-312.38 564.43,-311.59 562.91,-310.77 561.47,-309.93 560.11,-309.07 558.83,-308.19 557.64,-307.29 556.55,-306.38 555.56,-305.46 554.68,-304.53 553.92,-303.59 553.28,-302.65 552.77,-301.71 552.39,-300.77 552.16,-299.83 552.06,-298.9 552.12,-297.98 552.33,-297.07 552.69,-296.17 553.21,-295.29 553.89,-294.43 554.73,-293.59 555.73,-292.77 556.89,-291.98 558.21,-291.22 559.69,-290.49 561.32,-289.78 563.09,-289.12 565.01,-288.49 567.07,-287.89 569.26,-287.34 571.58,-286.83 574.01,-286.36 576.55,-285.93 579.19,-285.54 581.91,-285.21 584.71,-284.91 587.58,-284.67 590.51,-284.47 593.47,-284.33 596.47,-284.23 599.49,-284.18 602.51,-284.18 605.53,-284.23"/>
<text text-anchor="middle" x="601" y="-297.9" font-family="Times,serif" font-size="12.00">cpp_tutorial</text>
</g>
<!-- node1 -->
<g id="node10" class="node">
<title>node1</title>
<polygon fill="none" stroke="black" points="1027.84,-201.85 1027.84,-216.76 987.52,-227.31 930.48,-227.31 890.16,-216.76 890.16,-201.85 930.48,-191.31 987.52,-191.31 1027.84,-201.85"/>
<text text-anchor="middle" x="959" y="-205.03" font-family="Times,serif" font-size="12.00">cpp_tutorial&#45;static</text>
</g>
<!-- node2 -->
<g id="node11" class="node">
<title>node2</title>
<polygon fill="none" stroke="black" points="964.75,-284.23 968.56,-284.33 972.33,-284.47 976.04,-284.67 979.68,-284.91 983.24,-285.21 986.7,-285.54 990.05,-285.93 993.28,-286.36 996.36,-286.83 999.3,-287.34 1002.08,-287.89 1004.7,-288.49 1007.14,-289.12 1009.39,-289.78 1011.46,-290.49 1013.33,-291.22 1015.01,-291.98 1016.48,-292.77 1017.75,-293.59 1018.82,-294.43 1019.69,-295.29 1020.35,-296.17 1020.81,-297.07 1021.07,-297.98 1021.14,-298.9 1021.03,-299.83 1020.73,-300.77 1020.25,-301.71 1019.6,-302.65 1018.79,-303.59 1017.82,-304.53 1016.71,-305.46 1015.45,-306.38 1014.06,-307.29 1012.55,-308.19 1010.93,-309.07 1009.2,-309.93 1007.37,-310.77 1005.45,-311.59 1003.44,-312.38 1001.37,-313.14 999.23,-313.87 997.02,-314.57 994.77,-315.24 992.46,-315.87 990.12,-316.46 987.74,-317.02 985.33,-317.53 982.89,-318 980.42,-318.43 977.94,-318.81 975.45,-319.15 972.94,-319.44 970.42,-319.69 967.89,-319.88 965.35,-320.03 962.81,-320.13 960.27,-320.18 957.73,-320.18 955.19,-320.13 952.65,-320.03 950.11,-319.88 947.58,-319.69 945.06,-319.44 942.55,-319.15 940.06,-318.81 937.58,-318.43 935.11,-318 932.67,-317.53 930.26,-317.02 927.88,-316.46 925.54,-315.87 923.23,-315.24 920.98,-314.57 918.77,-313.87 916.63,-313.14 914.56,-312.38 912.55,-311.59 910.63,-310.77 908.8,-309.93 907.07,-309.07 905.45,-308.19 903.94,-307.29 902.55,-306.38 901.29,-305.46 900.18,-304.53 899.21,-303.59 898.4,-302.65 897.75,-301.71 897.27,-300.77 896.97,-299.83 896.86,-298.9 896.93,-297.98 897.19,-297.07 897.65,-296.17 898.31,-295.29 899.18,-294.43 900.25,-293.59 901.52,-292.77 902.99,-291.98 904.67,-291.22 906.54,-290.49 908.61,-289.78 910.86,-289.12 913.3,-288.49 915.92,-287.89 918.7,-287.34 921.64,-286.83 924.72,-286.36 927.95,-285.93 931.3,-285.54 934.76,-285.21 938.32,-284.91 941.96,-284.67 945.67,-284.47 949.44,-284.33 953.25,-284.23 957.08,-284.18 960.92,-284.18 964.75,-284.23"/>
<text text-anchor="middle" x="959" y="-297.9" font-family="Times,serif" font-size="12.00">cpp_tutorial&#45;test</text>
</g>
<!-- node2&#45;&gt;node1 -->
<g id="edge8" class="edge">
<title>node2&#45;&gt;node1</title>
<path fill="none" stroke="black" stroke-dasharray="1,5" d="M959,-284.09C959,-271.35 959,-253.66 959,-238.8"/>
<polygon fill="black" stroke="black" points="962.5,-239.15 959,-229.15 955.5,-239.15 962.5,-239.15"/>
</g>
<!-- node2&#45;&gt;node2 -->
<g id="edge9" class="edge">
<title>node2&#45;&gt;node2</title>
<path fill="none" stroke="black" d="M1008.31,-310.88C1025.37,-310.98 1039.14,-308.07 1039.14,-302.18 1039.14,-299.22 1035.66,-297.01 1030.03,-295.56"/>
<polygon fill="black" stroke="black" points="1030.68,-292.12 1020.26,-294.06 1029.62,-299.04 1030.68,-292.12"/>
</g>
<!-- node3 -->
<g id="node12" class="node">
<title>node3</title>
<polygon fill="none" stroke="black" points="872.07,-197.74 872.07,-220.88 831.61,-237.24 774.39,-237.24 733.93,-220.88 733.93,-197.74 774.39,-181.37 831.61,-181.37 872.07,-197.74"/>
<text text-anchor="middle" x="803" y="-212.16" font-family="Times,serif" font-size="12.00">gmock</text>
<text text-anchor="middle" x="803" y="-197.91" font-family="Times,serif" font-size="12.00">(GTest::gmock)</text>
</g>
<!-- node2&#45;&gt;node3 -->
<g id="edge13" class="edge">
<title>node2&#45;&gt;node3</title>
<path fill="none" stroke="black" stroke-dasharray="1,5" d="M931.47,-285.14C909.6,-272.4 878.45,-254.26 852.3,-239.02"/>
<polygon fill="black" stroke="black" points="854.26,-236.12 843.86,-234.11 850.74,-242.17 854.26,-236.12"/>
</g>
<!-- node5 -->
<g id="node14" class="node">
<title>node5</title>
<polygon fill="none" stroke="black" points="1049.04,-89.36 1049.04,-112.51 1013.28,-128.87 962.72,-128.87 926.96,-112.51 926.96,-89.36 962.72,-73 1013.28,-73 1049.04,-89.36"/>
<text text-anchor="middle" x="988" y="-103.79" font-family="Times,serif" font-size="12.00">gtest</text>
<text text-anchor="middle" x="988" y="-89.54" font-family="Times,serif" font-size="12.00">(GTest::gtest)</text>
</g>
<!-- node2&#45;&gt;node5 -->
<g id="edge14" class="edge">
<title>node2&#45;&gt;node5</title>
<path fill="none" stroke="black" stroke-dasharray="1,5" d="M989.21,-285.41C1006.68,-274.48 1027.11,-258.13 1037,-237.24 1052.35,-204.82 1035.07,-166.21 1016.93,-138.55"/>
<polygon fill="black" stroke="black" points="1019.94,-136.75 1011.39,-130.49 1014.17,-140.71 1019.94,-136.75"/>
</g>
<!-- node4 -->
<g id="node13" class="node">
<title>node4</title>
<polygon fill="none" stroke="black" points="995.44,-23.56 918,-36 840.56,-23.56 870.14,-3.44 965.86,-3.44 995.44,-23.56"/>
<text text-anchor="middle" x="918" y="-13.72" font-family="Times,serif" font-size="12.00">Threads::Threads</text>
</g>
<!-- node3&#45;&gt;node4 -->
<g id="edge10" class="edge">
<title>node3&#45;&gt;node4</title>
<path fill="none" stroke="black" d="M819.48,-181.18C841.64,-144.71 880.75,-80.31 902.43,-44.62"/>
<polygon fill="black" stroke="black" points="905.33,-46.6 907.53,-36.24 899.34,-42.97 905.33,-46.6"/>
</g>
<!-- node3&#45;&gt;node5 -->
<g id="edge12" class="edge">
<title>node3&#45;&gt;node5</title>
<path fill="none" stroke="black" d="M842.69,-185.49C871.3,-169.03 910.06,-146.75 940.35,-129.33"/>
<polygon fill="black" stroke="black" points="942.04,-132.4 948.96,-124.38 938.55,-126.33 942.04,-132.4"/>
</g>
<!-- node5&#45;&gt;node4 -->
<g id="edge11" class="edge">
<title>node5&#45;&gt;node4</title>
<path fill="none" stroke="black" d="M964.3,-72.53C955.89,-62.8 946.49,-51.94 938.38,-42.56"/>
<polygon fill="black" stroke="black" points="941.24,-40.52 932.05,-35.25 935.95,-45.1 941.24,-40.52"/>
</g>
<!-- node6 -->
<g id="node15" class="node">
<title>node6</title>
<polygon fill="none" stroke="black" points="850.46,-290.61 850.46,-313.75 796.88,-330.12 721.12,-330.12 667.54,-313.75 667.54,-290.61 721.12,-274.24 796.88,-274.24 850.46,-290.61"/>
<text text-anchor="middle" x="759" y="-305.03" font-family="Times,serif" font-size="12.00">gmock_main</text>
<text text-anchor="middle" x="759" y="-290.78" font-family="Times,serif" font-size="12.00">(GTest::gmock_main)</text>
</g>
<!-- node6&#45;&gt;node3 -->
<g id="edge16" class="edge">
<title>node6&#45;&gt;node3</title>
<path fill="none" stroke="black" d="M772.2,-273.91C776.16,-265.74 780.57,-256.62 784.8,-247.9"/>
<polygon fill="black" stroke="black" points="787.94,-249.44 789.15,-238.92 781.64,-246.39 787.94,-249.44"/>
</g>
<!-- node6&#45;&gt;node4 -->
<g id="edge15" class="edge">
<title>node6&#45;&gt;node4</title>
<path fill="none" stroke="black" d="M740.86,-274.21C726.58,-249.39 711.2,-211.91 725,-181.37 756.25,-112.18 833.71,-62.23 880.44,-37.2"/>
<polygon fill="black" stroke="black" points="881.9,-40.38 889.14,-32.65 878.66,-34.18 881.9,-40.38"/>
</g>
<!-- node7 -->
<g id="node16" class="node">
<title>node7</title>
<polygon fill="none" stroke="black" points="1250.42,-197.74 1250.42,-220.88 1201.56,-237.24 1132.44,-237.24 1083.58,-220.88 1083.58,-197.74 1132.44,-181.37 1201.56,-181.37 1250.42,-197.74"/>
<text text-anchor="middle" x="1167" y="-212.16" font-family="Times,serif" font-size="12.00">gtest_main</text>
<text text-anchor="middle" x="1167" y="-197.91" font-family="Times,serif" font-size="12.00">(GTest::gtest_main)</text>
</g>
<!-- node7&#45;&gt;node4 -->
<g id="edge17" class="edge">
<title>node7&#45;&gt;node4</title>
<path fill="none" stroke="black" d="M1151.22,-181.11C1132.48,-150.94 1098.57,-102.61 1058,-73 1032.57,-54.44 999.95,-41.37 972.6,-32.74"/>
<polygon fill="black" stroke="black" points="973.66,-29.41 963.07,-29.86 971.63,-36.11 973.66,-29.41"/>
</g>
<!-- node7&#45;&gt;node5 -->
<g id="edge18" class="edge">
<title>node7&#45;&gt;node5</title>
<path fill="none" stroke="black" d="M1127.71,-182.63C1110.2,-171.39 1089.23,-158.21 1070,-146.87 1059.4,-140.62 1047.89,-134.13 1036.94,-128.09"/>
<polygon fill="black" stroke="black" points="1038.86,-125.15 1028.4,-123.42 1035.49,-131.29 1038.86,-125.15"/>
</g>
</g>
</svg>
